<?xml version="1.0" encoding="utf-8"?>
<!-- Generator: Adobe Illustrator 24.2.1, SVG Export Plug-In . SVG Version: 6.00 Build 0)  -->
<svg version="1.1" id="Layer_1" xmlns="http://www.w3.org/2000/svg" xmlns:xlink="http://www.w3.org/1999/xlink" x="0px" y="0px"
	 viewBox="0 0 500 441" style="enable-background:new 0 0 500 441;" xml:space="preserve">
<style type="text/css">
	.st0{fill:none;stroke:#F9001F;stroke-linecap:round;stroke-linejoin:round;}
	.st1{fill:#FFFFFF;stroke:#F9001F;stroke-linecap:round;stroke-linejoin:round;}
	.st2{fill:#F9001F;stroke:#F9001F;stroke-linecap:round;stroke-linejoin:round;}
	.st3{fill:#FFFFFF;}
	.st4{fill:#111111;}
</style>
<g>
	<g>
		<g id="freepik--Icons--inject-2">
			<g>
				<polyline class="st0" points="200.3,91.9 200.3,117.4 209.8,127 				"/>
				<path class="st1" d="M211.6,127c0,1-0.8,1.8-1.8,1.8S208,128,208,127s0.8-1.8,1.8-1.8l0,0C210.8,125.2,211.6,126,211.6,127z"/>
				<path class="st2" d="M171.2,16.2h59.3c4.8,0,8.8,3.9,8.8,8.8v59.3c0,4.8-3.9,8.8-8.8,8.8h-59.3c-4.8,0-8.8-3.9-8.8-8.8V24.9
					C162.4,20.1,166.3,16.2,171.2,16.2z"/>
			</g>
			<g>
				<path class="st2" d="M416.3,65.4h59.3c4.8,0,8.8,3.9,8.8,8.8v59.3c0,4.8-3.9,8.8-8.8,8.8h-59.3c-4.8,0-8.8-3.9-8.8-8.8V74.2
					C407.6,69.3,411.5,65.4,416.3,65.4z"/>
				<polyline class="st0" points="407.6,103.8 337,103.8 314.6,126.3 				"/>
				<path class="st1" d="M316.4,126.3c0,1-0.8,1.8-1.8,1.8s-1.8-0.8-1.8-1.8s0.8-1.8,1.8-1.8l0,0
					C315.6,124.6,316.4,125.4,316.4,126.3z"/>
			</g>
			<g>
				<path class="st2" d="M401.4,310.1h59.3c4.8,0,8.8,3.9,8.8,8.8v59.3c0,4.8-3.9,8.8-8.8,8.8h-59.3c-4.8,0-8.8-3.9-8.8-8.8v-59.3
					C392.6,314,396.5,310.1,401.4,310.1z"/>
				<polyline class="st0" points="392.6,348.5 351,348.5 287.9,285.4 				"/>
				<path class="st1" d="M289.6,285.4c0,1-0.8,1.8-1.8,1.8s-1.8-0.8-1.8-1.8s0.8-1.8,1.8-1.8l0,0
					C288.8,283.6,289.6,284.4,289.6,285.4z"/>
			</g>
			<g>
				<path class="st2" d="M74.8,348h59.3c4.8,0,8.8,3.9,8.8,8.8V416c0,4.8-3.9,8.8-8.8,8.8H74.8c-4.8,0-8.8-3.9-8.8-8.8v-59.3
					C66,351.9,69.9,348,74.8,348z"/>
				<polyline class="st0" points="104.4,348 104.4,313.9 167.2,267 				"/>
				<path class="st1" d="M169,266.9c0,1-0.8,1.8-1.8,1.8s-1.8-0.8-1.8-1.8s0.8-1.8,1.8-1.8l0,0C168.2,265.2,169,266,169,266.9z"/>
			</g>
			<g>
				<g>
					<path class="st2" d="M24.4,152.5h59.3c4.8,0,8.8,3.9,8.8,8.8v59.3c0,4.8-3.9,8.8-8.8,8.8H24.4c-4.8,0-8.8-3.9-8.8-8.8v-59.3
						C15.6,156.5,19.5,152.5,24.4,152.5z"/>
					<line class="st0" x1="92.4" y1="190.9" x2="175.1" y2="190.9"/>
				</g>
				<path class="st1" d="M179.1,191.1c0,1-0.8,1.8-1.8,1.8s-1.8-0.8-1.8-1.8s0.8-1.8,1.8-1.8C178.3,189.4,179.1,190.1,179.1,191.1
					L179.1,191.1z"/>
			</g>
		</g>
		<path class="st3" d="M202,167.4c0-8.7,7.1-15.9,15.9-15.9H313c8.7,0,15.9,7.1,15.9,15.9v63.5H313v-63.5h-95.2v63.5H202V167.4z
			 M186.1,243.5c0-2.6,2.1-4.8,4.8-4.8H340c2.6,0,4.8,2.1,4.8,4.8c0,10.5-8.5,19-19,19H205.2C194.6,262.6,186.1,254,186.1,243.5z
			 M255.8,195.4l-7.7,7.7l7.7,7.7c2.3,2.3,2.3,6.1,0,8.4c-2.3,2.3-6.1,2.3-8.4,0l-11.9-11.9c-2.3-2.3-2.3-6.1,0-8.4l11.9-11.9
			c2.3-2.3,6.1-2.3,8.4,0C258.1,189.3,258.1,193.1,255.8,195.4L255.8,195.4z M283.5,187l11.9,11.9c2.3,2.3,2.3,6.1,0,8.4l-11.9,11.9
			c-2.3,2.3-6.1,2.3-8.4,0s-2.3-6.1,0-8.4l7.7-7.7l-7.7-7.7c-2.3-2.3-2.3-6.1,0-8.4S281.2,184.7,283.5,187L283.5,187z"/>
	</g>
	<path class="st4" d="M424.7,367.2c0,0-0.1,0.1-0.1,0.3c-0.1,0-0.3,0.1-0.4,0.1s-0.3,0-0.4,0s-0.1-0.1-0.3-0.3
		c0-0.1,0.1-0.1,0.1-0.3c0.1-0.1,0.3-0.1,0.4-0.1c0.1-0.1,0.3-0.1,0.4,0C424.6,366.9,424.6,367,424.7,367.2h0.1H424.7z M422.5,367.5
		c0,0.1,0,0.3-0.1,0.3c-0.1,0.1-0.3,0.1-0.4,0.1s-0.3,0-0.4-0.1c-0.2,0-0.2-0.1-0.2-0.3c0,0,0-0.1,0.2-0.3c0.1,0,0.3,0,0.4-0.1
		c0.1,0,0.3,0.1,0.4,0.1C422.5,367.3,422.5,367.3,422.5,367.5h0.1H422.5z M420.2,367.3c0,0.1,0,0.1-0.1,0.3c-0.1,0-0.3,0-0.4-0.1
		c-0.3,0-0.4,0-0.4-0.1c-0.1-0.1-0.1-0.3-0.1-0.3c0-0.1,0.1-0.3,0.3-0.3c0.1,0,0.3,0,0.4,0s0.3,0.1,0.4,0.3
		C420.2,367.2,420.2,367.2,420.2,367.3z M418.1,366.5c0,0-0.1,0.1-0.3,0c-0.1,0-0.3,0-0.4-0.1s-0.1-0.3-0.3-0.4c0,0,0-0.1,0.1-0.3
		c0,0,0.1,0,0.3,0c0.1,0,0.3,0,0.4,0.1s0.1,0.3,0.3,0.4C418.2,366.3,418.2,366.3,418.1,366.5h0.1H418.1z M416.5,364.8
		c0,0.1-0.1,0.1-0.3,0c0,0-0.1-0.1-0.3-0.1c0-0.1-0.1-0.3-0.1-0.4s0.1-0.3,0.1-0.3c0.1,0,0.3-0.1,0.3,0c0.1,0,0.3,0.1,0.4,0.1
		c0,0.1,0.1,0.3,0.1,0.4S416.6,364.8,416.5,364.8h0.1H416.5z M415.4,363.2c0,0.1-0.1,0.1-0.3,0.1c-0.1,0-0.1-0.1-0.3-0.3
		c0,0-0.1-0.1-0.1-0.3c0-0.1,0-0.1,0.1-0.3h0.1c0.1,0,0.3,0,0.3,0.1c0.1,0.1,0.1,0.3,0.1,0.3C415.6,363.1,415.4,363.2,415.4,363.2
		h0.1H415.4z M414.3,361.9c0,0.1,0,0.1-0.1,0.1s-0.1,0-0.3,0c-0.1,0-0.1-0.1-0.3-0.1c0-0.1,0-0.1,0-0.3c0,0,0.1,0,0.3-0.1
		c0,0,0.1,0,0.3,0.1c0,0,0.1,0,0.1,0.1C414.4,361.8,414.4,361.9,414.3,361.9h0.1H414.3z M431.8,321.5c-3.8,0-7.5,0.7-10.9,2.2
		s-6.5,3.5-9,6c-2.5,2.6-4.6,5.6-6,9c-1.5,3.4-2.2,7.1-2.2,11c0,3.1,0.4,6,1.5,9c0.9,2.8,2.2,5.3,4,7.6c1.6,2.3,3.7,4.4,6,6.2
		c2.4,1.6,5,2.9,7.8,4c0.6,0.1,1.2,0,1.5-0.3s0.4-0.7,0.4-1c0-0.4,0-1,0-2.1c0-1,0-2.1,0-3.2c-4,0.9-6.5,0.4-7.8-1
		c-1.2-1.5-1.8-2.3-1.8-2.3c-0.6-1.6-1.3-2.6-2.1-3.2c-0.7-0.6-1-0.9-1-0.9c-1.3-0.9-1.6-1.3-0.9-1.5c0.7-0.1,1-0.1,1-0.1
		c1.5,0,2.5,0.6,3.2,1.5s1.2,1.3,1.2,1.3c1.2,2.2,2.6,3.2,4.4,3.1c1.6-0.1,2.9-0.3,3.7-0.7c0.1-0.9,0.3-1.6,0.7-2.2
		c0.3-0.6,0.7-1.2,1.2-1.6c-1.6-0.1-3.2-0.4-4.7-0.9c-1.6-0.4-2.9-1.2-4.1-2.2c-1.3-1-2.2-2.3-2.9-4.1c-0.7-1.8-1.2-4-1.2-6.6
		c0-1.6,0.3-2.9,0.7-4.3c0.6-1.2,1.3-2.3,2.2-3.4c-0.1-0.3-0.3-1.2-0.6-2.5c-0.1-1.3,0.1-2.9,0.9-5c0,0,0.6,0.1,1.8,0.1
		c1.3,0,3.2,1,5.9,2.8c1.2-0.3,2.4-0.4,3.5-0.6c1.2-0.1,2.3-0.3,3.5-0.3c1.3,0,2.5,0,3.7,0.3c1.2,0.1,2.3,0.3,3.4,0.6
		c2.8-1.8,4.7-2.8,6-2.8c1.2,0,1.8-0.1,1.8-0.1c0.7,2.1,1,3.7,0.9,5c-0.3,1.3-0.4,2.2-0.6,2.5c0.9,1,1.6,2.2,2.2,3.4
		c0.4,1.3,0.7,2.7,0.7,4.3c0,2.6-0.4,4.8-1.2,6.6c-0.7,1.8-1.8,3.1-2.9,4.1c-1.2,1-2.7,1.8-4.1,2.2c-1.6,0.4-3.1,0.7-4.7,0.9
		c0.6,0.4,1,1.2,1.3,2.1c0.4,0.9,0.6,1.9,0.6,3.2c0,1.9,0,3.5,0,5c0,1.3,0,2.2,0,2.8c0,0.3,0.1,0.7,0.4,1s0.7,0.4,1.5,0.3
		c2.8-1,5.4-2.3,7.8-4c2.4-1.8,4.4-3.8,6-6.2c1.8-2.3,3.1-4.8,4.1-7.6c0.9-2.9,1.3-5.9,1.3-9c0-4-0.7-7.5-2.2-11
		c-1.5-3.4-3.5-6.3-6-9c-2.5-2.5-5.6-4.6-9-6C439.4,322.2,435.7,321.5,431.8,321.5h0.1H431.8z"/>
	<path class="st4" d="M222.2,61.2c-0.5,0.2-0.9,0.3-1.4,0.5c-0.6,0.2-1.1,0.3-1.7,0.5c-0.3-1.2-0.8-2.5-1.2-3.7
		c-0.5-1.2-1.1-2.6-1.7-3.9c0.6-1.4,1.2-2.6,1.7-3.9c0.5-1.2,0.9-2.6,1.2-3.9c3.4,1.1,6,2.2,8.1,3.6c1.9,1.4,2.9,2.8,2.9,4.2
		c0,1.1-0.8,2.3-2.2,3.6C226.7,59.2,224.6,60.3,222.2,61.2z M217.8,68.8c0.5,2.6,0.5,4.8,0.2,6.5s-0.9,3-2,3.6
		c-0.3,0.2-0.5,0.2-0.8,0.3c-0.3,0-0.6,0.2-0.9,0.2c-1.5,0-3.1-0.6-5-1.7c-1.7-1.1-3.6-2.6-5.4-4.5c0.9-0.9,1.7-1.9,2.6-2.9
		c0.8-1.1,1.7-2.2,2.5-3.4c1.4-0.2,2.8-0.3,4.2-0.5s2.6-0.5,4-0.8c0.2,0.6,0.2,1.1,0.3,1.7C217.7,67.7,217.7,68.3,217.8,68.8h0.2
		H217.8z M187.9,78.9c-1.1-0.6-1.7-1.9-2-3.6s-0.3-3.9,0.2-6.5c0-0.5,0.2-1.1,0.3-1.6c0-0.5,0.2-1.1,0.3-1.7c1.4,0.3,2.6,0.6,4,0.8
		c1.4,0.2,2.6,0.3,4.2,0.5c0.8,1.2,1.7,2.3,2.5,3.4c0.9,1.1,1.7,2,2.6,2.9c-1.9,1.9-3.6,3.4-5.4,4.5c-1.9,1.1-3.4,1.7-5,1.7
		c-0.3,0-0.6,0-0.9-0.2C188.4,79,188.2,79,187.9,78.9z M173.8,54.5c0-1.1,0.8-2.3,2-3.4c1.4-1.2,3.4-2.3,5.7-3.1
		c0.6-0.3,1.1-0.5,1.5-0.6c0.6-0.2,1.1-0.3,1.7-0.5c0.3,1.2,0.8,2.5,1.2,3.7c0.5,1.4,1.1,2.6,1.7,4c-0.6,1.2-1.2,2.5-1.7,3.9
		c-0.5,1.2-0.9,2.5-1.2,3.7c-3.4-1.1-6-2.2-8.1-3.6C174.9,57.3,173.8,55.9,173.8,54.5h0.2H173.8z M186,40.3
		c-0.5-2.6-0.5-4.8-0.2-6.5c0.3-1.7,0.9-2.9,2-3.4c0.3-0.2,0.5-0.3,0.8-0.5c0.3,0,0.6-0.2,0.9-0.2c1.6,0,3.1,0.6,5,1.7
		c1.7,1.1,3.6,2.6,5.4,4.5c-0.9,0.9-1.7,1.9-2.6,2.9c-0.8,1.1-1.7,2.2-2.5,3.4c-1.4,0.2-2.8,0.3-4.2,0.5c-1.4,0.3-2.6,0.5-4,0.8
		c-0.2-0.6-0.3-1.1-0.3-1.7C186.2,41.4,186.2,40.8,186,40.3h0.2H186z M212.9,48.3l-1.7-2.9c0.9,0,1.9,0.2,2.6,0.3
		c0.9,0.2,1.7,0.3,2.6,0.6c-0.3,0.8-0.6,1.5-0.9,2.5c-0.3,0.8-0.6,1.7-0.9,2.5c-0.3-0.5-0.6-0.9-0.9-1.6
		C213.5,49.3,213.2,48.8,212.9,48.3z M201.8,38c0.6,0.6,1.2,1.2,1.9,2c0.5,0.6,1.1,1.4,1.5,2c-0.5,0-1.1,0-1.7,0
		c-0.5-0.2-1.1-0.2-1.7-0.2c-0.5,0-1.1,0-1.5,0.2c-0.6,0-1.2,0-1.7,0c0.5-0.6,1.1-1.4,1.5-2C200.8,39.2,201.4,38.6,201.8,38z
		 M189.3,51.3c-0.3-0.9-0.8-1.7-1.1-2.6c-0.2-0.8-0.5-1.7-0.8-2.5c0.8-0.2,1.7-0.3,2.6-0.5c0.8-0.2,1.7-0.3,2.6-0.5
		c-0.3,0.5-0.5,0.9-0.8,1.4s-0.6,1.1-0.9,1.5c-0.3,0.5-0.6,1.1-0.9,1.5C189.9,50.2,189.6,50.8,189.3,51.3h0.2H189.3z M192.7,63.8
		c-0.9-0.2-1.9-0.3-2.6-0.5c-0.9-0.2-1.9-0.3-2.6-0.5c0.3-0.9,0.6-1.7,0.8-2.5c0.3-0.9,0.8-1.7,1.1-2.6c0.3,0.5,0.6,1.1,0.8,1.6
		c0.3,0.5,0.6,0.9,0.9,1.5c0.3,0.5,0.6,0.9,0.9,1.4C192.2,62.8,192.4,63.4,192.7,63.8h0.2H192.7z M201.8,71.1
		c-0.5-0.6-1.1-1.2-1.7-1.9c-0.5-0.8-1.1-1.4-1.5-2.2c0.5,0,1.1,0.2,1.7,0.2c0.5,0,1.1,0,1.5,0c0.6,0,1.2,0,1.7,0
		c0.6,0,1.2-0.2,1.7-0.2c-0.5,0.8-1.1,1.4-1.5,2.2C203.1,69.9,202.5,70.5,201.8,71.1z M214.6,57.9c0.3,0.8,0.6,1.7,0.9,2.5
		c0.3,0.8,0.6,1.7,0.9,2.5c-0.8,0.2-1.7,0.5-2.6,0.6c-0.8,0-1.7,0.2-2.6,0.3c0.2-0.5,0.5-0.9,0.8-1.4s0.6-0.9,0.9-1.5
		c0.3-0.5,0.6-0.9,0.8-1.5C213.9,58.9,214.2,58.4,214.6,57.9z M210.4,59.5c-0.3,0.8-0.8,1.5-1.4,2.3c-0.5,0.8-0.9,1.5-1.6,2.3
		c-0.9,0.2-1.9,0.2-2.8,0.2c-0.8,0.2-1.7,0.2-2.8,0.2c-0.9,0-1.9,0-2.8-0.2c-0.9,0-1.7,0-2.6-0.2c-0.6-0.6-1.1-1.5-1.5-2.3
		c-0.5-0.8-0.9-1.5-1.4-2.3s-0.9-1.7-1.4-2.5s-0.8-1.7-1.2-2.5c0.5-0.8,0.8-1.5,1.2-2.5c0.5-0.8,0.9-1.6,1.4-2.5
		c0.5-0.8,0.9-1.5,1.4-2.3s1.1-1.5,1.5-2.3c0.9-0.2,1.9-0.2,2.8-0.2c0.9,0,1.9,0,2.8,0c0.9,0,1.9,0,2.8,0c0.9,0,1.9,0,2.6,0.2
		c0.6,0.8,1.1,1.5,1.7,2.3c0.5,0.8,0.9,1.5,1.2,2.3c0.5,0.9,0.9,1.7,1.4,2.5c0.5,0.9,0.9,1.7,1.2,2.5c-0.3,0.8-0.8,1.7-1.2,2.5
		C211.3,57.8,210.8,58.7,210.4,59.5z M216,30.4c1.1,0.5,1.7,1.7,2,3.4c0.3,1.7,0.3,3.9-0.2,6.5c0,0.5-0.2,1.1-0.3,1.5
		c0,0.6-0.2,1.1-0.3,1.7c-1.4-0.3-2.6-0.5-4-0.8c-1.4-0.2-2.8-0.3-4.2-0.5c-0.8-1.2-1.7-2.3-2.5-3.4c-0.9-1.1-1.7-2-2.6-2.9
		c1.9-1.9,3.6-3.3,5.4-4.5c1.7-1.1,3.4-1.7,5-1.7c0.3,0,0.6,0.2,0.9,0.2C215.5,30.1,215.7,30.2,216,30.4h0.2H216z M223.2,45.4
		c-0.6-0.3-1.1-0.5-1.7-0.6c-0.5-0.3-1.1-0.5-1.7-0.6c0.2-0.6,0.3-1.1,0.5-1.7s0.2-1.2,0.3-1.9c0.5-3.1,0.5-5.9,0-8.1
		c-0.6-2.3-1.7-3.9-3.3-4.6c-0.5-0.3-0.9-0.5-1.5-0.6c-0.5-0.2-1.1-0.2-1.7-0.2c-1.7,0-3.6,0.5-5.7,1.7c-2,1.2-4.2,2.9-6.5,5.1
		c-2.2-2.2-4.3-3.9-6.4-5.1c-2.2-1.1-4-1.7-5.9-1.7c-0.6,0-1.1,0-1.5,0.2c-0.6,0.2-1.1,0.3-1.5,0.6c-1.5,0.9-2.6,2.5-3.3,4.6
		c-0.5,2.2-0.5,5,0,8.1c0.2,0.6,0.2,1.2,0.3,1.9c0.2,0.5,0.3,1.1,0.5,1.7c-0.6,0.2-1.2,0.3-1.7,0.5c-0.6,0.3-1.1,0.5-1.7,0.8
		c-3.1,1.1-5.4,2.5-7.1,4c-1.6,1.6-2.3,3.3-2.3,5.1c0,1.9,0.8,3.6,2.3,5.1c1.7,1.5,4,2.9,7.1,4.2c0.5,0.2,1.1,0.3,1.7,0.6
		c0.5,0.2,1.1,0.3,1.7,0.5c-0.2,0.6-0.3,1.2-0.5,1.9c-0.2,0.5-0.2,1.1-0.3,1.7c-0.5,3.3-0.5,5.9,0,8.2c0.6,2.2,1.7,3.7,3.3,4.5
		c0.5,0.3,0.9,0.6,1.5,0.6c0.5,0.2,0.9,0.3,1.5,0.3c1.9,0,3.7-0.6,5.9-1.9c2-1.2,4.2-2.9,6.4-5c2.3,2,4.5,3.7,6.5,5
		c2.2,1.2,4,1.9,5.7,1.9c0.6,0,1.2-0.2,1.7-0.3c0.6,0,1.1-0.3,1.5-0.6c1.5-0.8,2.6-2.3,3.3-4.6c0.5-2.2,0.5-4.8,0-8.1
		c-0.2-0.6-0.2-1.2-0.3-1.7c-0.2-0.6-0.3-1.2-0.5-1.9c0.6-0.2,1.2-0.3,1.7-0.5c0.6-0.2,1.1-0.5,1.7-0.6c3.1-1.2,5.4-2.6,7.1-4.2
		c1.5-1.6,2.3-3.3,2.3-5.1c0-1.7-0.8-3.6-2.3-5.1C228.7,47.9,226.3,46.5,223.2,45.4z M207.6,54.5c0,1.5-0.6,2.9-1.7,4
		c-1.1,1.1-2.3,1.6-4,1.6c-1.5,0-2.8-0.5-3.9-1.6c-1.1-1.1-1.7-2.5-1.7-4s0.6-2.8,1.7-3.9c1.1-1.1,2.3-1.7,3.9-1.7
		c1.6,0,3,0.5,4,1.7C207,51.6,207.6,53,207.6,54.5z"/>
	<path class="st4" d="M111,395.5c-2.7,0-4.6-0.3-5.3-1c-0.9-0.7-1.4-1.7-1.7-3.1c0-0.1,0-0.3-0.1-0.4s-0.3-0.1-0.4-0.1h-2.6
		c-0.1,0-0.3,0-0.4,0.3c-0.1,0.1-0.1,0.3-0.1,0.4c0,1.7,0.7,3.3,2,5s4.3,2.6,8.7,2.6c3.1,0,5.6-0.7,7.3-1.9c1.9-1.2,2.7-2.9,2.7-5.1
		c0-2.1-0.7-3.6-2.3-4.4c-1.4-0.9-3.7-1.4-6.9-1.9c-3.1-0.3-5-0.7-5.7-1.1c-0.7-0.3-1.1-0.9-1.1-1.6c0-0.6,0.3-1.1,0.9-1.9
		c0.6-0.6,2-1,4.3-1c2,0,3.6,0.3,4.4,0.9c0.9,0.6,1.6,1.4,1.9,2.9c0,0.1,0.1,0.3,0.1,0.4c0.1,0,0.3,0,0.4,0h2.6c0.1,0,0.1,0,0.3,0
		c0,0,0.1,0,0.1-0.1l0.1-0.1c0-0.1,0-0.1,0-0.3c-0.1-2.4-1.1-4.1-2.7-5.3c-1.6-1.1-4-1.7-7.3-1.7c-2.9,0-5.1,0.6-6.7,1.7
		s-2.4,2.7-2.4,4.7c0,2.1,0.7,3.7,2.3,4.6c1.7,0.9,3.9,1.4,6.6,1.6c3.3,0.4,5.3,0.7,6,1.3c0.7,0.4,1.1,1,1.1,1.7
		c0,1.1-0.6,1.9-1.4,2.4C114.6,395.4,113.1,395.5,111,395.5z M126.7,372.4l-20-11.7c-0.6-0.3-1.3-0.6-2-0.6c-0.9,0-1.6,0.3-2.1,0.6
		l-20.2,11.7c-0.7,0.3-1.3,0.9-1.6,1.6c-0.4,0.6-0.7,1.3-0.7,2v23.3c0,0.7,0.3,1.4,0.7,2.1c0.4,0.6,0.9,1.1,1.6,1.6l5.3,3
		c1.3,0.6,2.1,1,2.7,1.1c0.6,0,1.1,0.1,1.7,0.1c1.9,0,3.3-0.6,4.3-1.7c1-1,1.4-2.6,1.4-4.6v-23c0-0.1,0-0.3,0.1-0.4
		c0-0.3,0-0.3-0.1-0.3h-2.6c-0.1,0-0.4,0-0.6,0.3c-0.3,0.1-0.4,0.3-0.4,0.4v23c0,0.9-0.4,1.6-1.1,2.1c-0.9,0.7-2,0.6-3.6-0.1
		l-5.4-3.1c-0.1-0.1-0.1-0.1-0.3-0.3c0-0.1,0-0.1,0-0.3v-23.3c0,0,0-0.1,0.1-0.3c0,0,0.1-0.1,0.3-0.1l20.2-11.7c0,0,0.1,0,0.3,0
		c0.1,0,0.1,0,0.3,0l20,11.7c0.1,0,0.1,0,0.1,0.1s0,0.3,0,0.3v23.3c0,0.1,0,0.1,0,0.3c0,0.1,0,0.1-0.1,0.3l-20,11.6
		c-0.1,0-0.3,0.2-0.3,0.2c-0.1,0-0.3-0.2-0.3-0.2l-5.1-3c-0.1-0.1-0.3-0.1-0.3-0.1c-0.1,0-0.1,0-0.3,0c-0.7,0.4-1.1,0.7-1.6,0.9
		c-0.3,0.1-0.7,0.3-1.4,0.6c-0.2,0-0.3,0.1-0.4,0.3c-0.1,0.1,0.1,0.3,0.6,0.6l6.7,4c0.4,0.1,0.7,0.3,1.1,0.4c0.3,0.1,0.7,0.1,1,0.1
		c0.4,0,0.7,0,1.1-0.1c0.3-0.1,0.7-0.3,1-0.4l19.9-11.6c0.7-0.4,1.3-1,1.6-1.6c0.3-0.7,0.4-1.4,0.4-2.1V376c0-0.7-0.1-1.4-0.4-2
		C128,373.2,127.4,372.8,126.7,372.4L126.7,372.4L126.7,372.4z"/>
	<path class="st4" d="M69.7,177.5l-0.3,3.2v1.4H46.1l0.6,6.3H69l-0.3,1.5l-1.4,16v1l-12.5,3.3L42.3,207l-0.8-9.5h6.1l0.4,4.9
		l6.8,1.8v-0.1l6.8-1.8l0.7-7.8H41l-1.4-16.9l-0.3-1.7H70L69.7,177.5L69.7,177.5L69.7,177.5z M30.3,165.8l4.5,49.6l19.9,5.4
		l19.9-5.4l4.5-49.6L30.3,165.8l0.1,0L30.3,165.8L30.3,165.8z"/>
	<path class="st4" d="M461.1,89.4l-1.5,16.5v0.3h0.1l-1.1,11.4l-0.1,1.1l-12.4,3.4l-12.4-3.4l-0.8-9.5h6.1l0.4,4.7l6.8,1.9l6.8-1.9
		l0.7-7.9h-14.1l-0.1-1.2l-0.3-3.2l-0.1-1.7h15.2l0.6-6.2h-23.2l-0.1-1.2l-0.3-3.2l-0.1-1.7h30.3L461.1,89.4h0.1H461.1z M421.8,78.1
		l4.5,49.5l19.7,5.5l19.7-5.5l4.4-49.5L421.8,78.1l0.1,0C421.9,78.1,421.8,78.1,421.8,78.1z"/>
</g>
</svg>
