<svg id="Layer_1" data-name="Layer 1" xmlns="http://www.w3.org/2000/svg" viewBox="0 0 963.91 963.91"><defs><style>.cls-1{fill:#f9001f;stroke:#f9001f;stroke-miterlimit:10;stroke-width:5px;}</style></defs><polygon class="cls-1" points="420.87 836.04 420.78 469.41 420.82 469.41 420.87 836.04"/><polygon class="cls-1" points="956.96 8.32 835.42 251.4 543.15 469.41 543.15 835.95 481.34 958.32 420.87 836.04 420.82 469.41 420.78 469.41 128.46 251.3 6.96 8.32 481.96 363.43 956.96 8.32"/><polygon class="cls-1" points="836.02 301.37 755.87 461.68 681.57 517.13 644.38 545.26 644.16 667.06 644.49 759.53 604.55 839.42 604.54 839.43 577 866.66 549.52 893.83 577 839.42 577 494.66 614.42 466.74 836.02 301.37"/><polygon class="cls-1" points="127.42 301.21 207.57 461.52 281.87 516.97 319.06 545.1 319.28 666.9 318.95 759.37 358.89 839.26 358.9 839.27 386.44 866.5 413.92 893.67 386.44 839.26 386.44 494.5 349.02 466.58 127.42 301.21"/></svg>